<?xml version="1.0" encoding="UTF-8" standalone="no"?>
<!-- Created with Inkscape (http://www.inkscape.org/) -->

<svg
   xmlns:dc="http://purl.org/dc/elements/1.1/"
   xmlns:cc="http://creativecommons.org/ns#"
   xmlns:rdf="http://www.w3.org/1999/02/22-rdf-syntax-ns#"
   xmlns:svg="http://www.w3.org/2000/svg"
   xmlns="http://www.w3.org/2000/svg"
   xmlns:sodipodi="http://sodipodi.sourceforge.net/DTD/sodipodi-0.dtd"
   xmlns:inkscape="http://www.inkscape.org/namespaces/inkscape"
   width="210mm"
   height="297mm"
   viewBox="0 0 744.09448819 1052.3622047"
   id="svg2"
   version="1.1"
   inkscape:version="0.91 r13725"
   sodipodi:docname="cover.svg"
   inkscape:export-filename="/Users/taavi/Dropbox/2017-R-course/lectures/assets/img/cover.png"
   inkscape:export-xdpi="72.498138"
   inkscape:export-ydpi="72.498138">
  <defs
     id="defs4" />
  <sodipodi:namedview
     id="base"
     pagecolor="#ffffff"
     bordercolor="#666666"
     borderopacity="1.0"
     inkscape:pageopacity="0.0"
     inkscape:pageshadow="2"
     inkscape:zoom="0.52548447"
     inkscape:cx="400.70509"
     inkscape:cy="526.1811"
     inkscape:document-units="px"
     inkscape:current-layer="layer1"
     showgrid="false"
     inkscape:window-width="1276"
     inkscape:window-height="755"
     inkscape:window-x="4"
     inkscape:window-y="1"
     inkscape:window-maximized="1" />
  <metadata
     id="metadata7">
    <rdf:RDF>
      <cc:Work
         rdf:about="">
        <dc:format>image/svg+xml</dc:format>
        <dc:type
           rdf:resource="http://purl.org/dc/dcmitype/StillImage" />
        <dc:title></dc:title>
      </cc:Work>
    </rdf:RDF>
  </metadata>
  <g
     inkscape:label="Layer 1"
     inkscape:groupmode="layer"
     id="layer1">
    <rect
       style="fill:#2b0000;fill-opacity:1;stroke:#ffff00;stroke-width:0.39815581;stroke-linecap:round;stroke-linejoin:round;stroke-miterlimit:4;stroke-dasharray:none;stroke-opacity:1"
       id="rect4442"
       width="744.03149"
       height="1052.3185"
       x="0.021914287"
       y="0.021906452" />
    <g
       id="g3566"
       transform="translate(32.822534,287.35388)"
       style="fill:none;fill-opacity:1;stroke:#ffff00;stroke-width:1.35354328;stroke-miterlimit:4;stroke-dasharray:none;stroke-opacity:1">
      <path
         inkscape:connector-curvature="0"
         id="path3362"
         d="m 183.08124,410.92399 2.61545,1.96158"
         style="fill:none;fill-opacity:1;fill-rule:evenodd;stroke:#ffff00;stroke-width:1.35354328;stroke-linecap:butt;stroke-linejoin:miter;stroke-miterlimit:4;stroke-dasharray:none;stroke-opacity:1" />
      <path
         inkscape:connector-curvature="0"
         id="path3436"
         d="m 107.82859,397.88635 c 2.04432,3.33807 5.88642,2.28935 9.15406,3.92317 14.13944,7.06972 43.50189,0.40912 53.61665,-13.07723 1.48417,-1.9789 3.00403,-4.31175 4.57703,-5.88476 0.31358,-0.31358 2.30187,-0.34028 2.61545,-0.65386 0.63544,-0.63544 0.15538,-1.86772 0.65386,-2.61544 1.72169,-2.58255 4.32511,-4.52608 5.23089,-5.88476 1.22323,-1.83484 1.5701,-7.45485 3.26931,-9.15406 0.46235,-0.46235 1.49923,0.46235 1.96158,0 0.9247,-0.9247 -0.9247,-2.99847 0,-3.92317 2.43795,-2.43794 4.74148,-10.30124 5.88476,-13.73109 0.73322,-2.19966 -0.37223,-5.14031 0.65386,-7.19248 1.42128,-2.84255 2.96019,-13.92128 4.57703,-16.34654 2.03898,-3.05847 2.88491,-6.42367 4.57703,-9.80792 6.73811,-13.47622 20.64246,-24.19288 37.27011,-24.19288 15.35779,0 30.10577,8.5424 37.92398,20.26971 0.48359,0.72539 -0.38989,1.83567 0,2.61544 0.88502,1.77006 4.27121,4.61926 5.23089,6.53862 0.38989,0.77977 -0.4836,1.89005 0,2.61544 2.06457,3.09686 4.57703,9.94269 4.57703,13.7311 0,2.14592 3.02973,26.56875 3.92317,27.46218 4.03748,4.03749 6.38562,10.30879 9.80792,13.7311 3.75108,3.75108 9.06946,4.32321 9.80793,6.53861 0.72529,2.17589 -1.81675,-1.56223 1.30772,0 0.38989,0.19495 -0.30823,0.99949 0,1.30773 2.36315,2.36315 3.59796,0.98251 6.53862,3.92317 0.34461,0.34461 0.90221,-0.9242 1.30772,-0.65386 4.81002,3.20668 24.41202,8.5002 32.69308,8.5002 1.41422,0 7.23692,0.67608 8.5002,1.30772 0.38989,0.19494 -0.43591,1.30772 0,1.30772 1.48752,0 6.53861,-0.58572 6.53861,0.65386 0,1.30773 -2.61544,0 -3.92316,0"
         style="fill:none;fill-opacity:1;fill-rule:evenodd;stroke:#ffff00;stroke-width:1.35354328;stroke-linecap:butt;stroke-linejoin:miter;stroke-miterlimit:4;stroke-dasharray:none;stroke-opacity:1" />
      <path
         inkscape:connector-curvature="0"
         id="path3438"
         d="m 406.04805,325.26812 c 0.85461,19.514 -6.53862,48.24538 -6.53862,73.2325 0,3.92887 -1.73454,12.87746 0,16.34654 1.88658,3.77316 0.65386,10.57628 0.65386,15.03881 0,2.9138 1.96159,8.83039 1.96159,9.15406 0,3.89183 -0.51453,6.16343 0.65386,8.5002 0.4655,0.93102 1.68198,-4.57703 3.92317,-4.57703 2.37313,0 7.15548,-0.96229 11.76951,-3.2693 1.3646,-0.68231 3.21242,0.6823 4.57703,0 1.61043,-0.80522 -0.68774,-1.30773 2.61544,-1.30773 27.82627,0 60.50186,-8.57702 89.57904,-1.30772 3.74744,0.93686 10.11735,-0.33277 13.07723,0.65386 3.43465,1.14488 9.73049,0.62805 11.76951,1.30772 4.95255,1.65085 12.11239,2.61545 18.96199,2.61545 1.6491,0 19.51351,2.71778 20.92357,1.30772 1.79737,-1.79737 -1.00209,-1.96158 -2.61545,-1.96158"
         style="fill:none;fill-opacity:1;fill-rule:evenodd;stroke:#ffff00;stroke-width:1.35354328;stroke-linecap:butt;stroke-linejoin:miter;stroke-miterlimit:4;stroke-dasharray:none;stroke-opacity:1" />
      <path
         inkscape:connector-curvature="0"
         id="path3440"
         d="m 398.20171,403.07765 c 5.0833,0.64253 15.40922,-5.69955 21.57743,-2.61545 2.78689,1.39345 13.83808,2.88889 17.0004,1.30772 3.21763,-1.60881 6.04039,-1.30772 9.15406,-1.30772 3.32137,0 7.45768,-1.96158 10.46179,-1.96158 10.5093,0 22.33909,2.26156 31.38536,0 1.9293,-0.48233 5.38803,-1.96159 7.19247,-1.96159 10.15958,0 16.19811,0 28.76991,0 0.78585,0 1.17574,-1.30772 1.96159,-1.30772 1.59593,0 4.60659,0.96601 6.53861,0 4.66096,-2.33048 16.03645,1.13584 20.92357,-1.30773 2.88075,-1.44037 4.02035,-0.70244 6.53862,-1.96158 0.43591,-0.21795 0.1665,-1.30772 0.65386,-1.30772 3.45125,0 6.36292,3.445 8.5002,1.30772 1.70501,-1.70501 13.92301,2.7114 9.80793,0.65386"
         style="fill:none;fill-opacity:1;fill-rule:evenodd;stroke:#ffff00;stroke-width:1.35354328;stroke-linecap:butt;stroke-linejoin:miter;stroke-miterlimit:4;stroke-dasharray:none;stroke-opacity:1" />
      <path
         inkscape:connector-curvature="0"
         id="path3442"
         d="m 404.74032,404.38537 c 3.23881,3.87987 4.16534,15.62005 1.96159,22.23129 -0.7627,2.28808 0.66596,13.07724 0,13.07724 -1.08977,0 0,-2.17954 0,-3.26931"
         style="fill:none;fill-opacity:1;fill-rule:evenodd;stroke:#ffff00;stroke-width:1.35354328;stroke-linecap:butt;stroke-linejoin:miter;stroke-miterlimit:4;stroke-dasharray:none;stroke-opacity:1" />
      <path
         inkscape:connector-curvature="0"
         id="path3444"
         d="m 421.08686,399.80834 c 2.15019,-0.0862 -0.74593,3.92317 0,3.92317 1.6226,0 2.31616,13.9751 0,20.92357 -0.5806,1.74181 0,10.07815 0,5.88475"
         style="fill:none;fill-opacity:1;fill-rule:evenodd;stroke:#ffff00;stroke-width:1.35354328;stroke-linecap:butt;stroke-linejoin:miter;stroke-miterlimit:4;stroke-dasharray:none;stroke-opacity:1" />
      <path
         inkscape:connector-curvature="0"
         id="path3446"
         d="m 433.51023,399.80834 c 2.81689,5.50689 1.34364,25.42878 -0.65386,29.42377"
         style="fill:none;fill-opacity:1;fill-rule:evenodd;stroke:#ffff00;stroke-width:1.35354328;stroke-linecap:butt;stroke-linejoin:miter;stroke-miterlimit:4;stroke-dasharray:none;stroke-opacity:1" />
      <path
         inkscape:connector-curvature="0"
         id="path3448"
         d="m 441.35657,399.80834 c 3.46028,10.18386 -0.65386,23.37214 -0.65386,31.38536"
         style="fill:none;fill-opacity:1;fill-rule:evenodd;stroke:#ffff00;stroke-width:1.35354328;stroke-linecap:butt;stroke-linejoin:miter;stroke-miterlimit:4;stroke-dasharray:none;stroke-opacity:1" />
      <path
         inkscape:connector-curvature="0"
         id="path3450"
         d="m 445.27974,400.4622 c 1.67016,3.93208 3.88996,31.38536 2.61545,31.38536 -0.89865,0 0.25197,-1.81168 0.65386,-2.61545"
         style="fill:none;fill-opacity:1;fill-rule:evenodd;stroke:#ffff00;stroke-width:1.35354328;stroke-linecap:butt;stroke-linejoin:miter;stroke-miterlimit:4;stroke-dasharray:none;stroke-opacity:1" />
      <path
         inkscape:connector-curvature="0"
         id="path3452"
         d="m 451.81836,401.76992 c 3.14386,5.69276 3.92317,11.04876 3.92317,18.30813 0,4.91347 1.96158,7.14984 1.96158,6.53861 0,-0.68923 -0.65386,-1.27235 -0.65386,-1.96158"
         style="fill:none;fill-opacity:1;fill-rule:evenodd;stroke:#ffff00;stroke-width:1.35354328;stroke-linecap:butt;stroke-linejoin:miter;stroke-miterlimit:4;stroke-dasharray:none;stroke-opacity:1" />
      <path
         inkscape:connector-curvature="0"
         id="path3454"
         d="m 460.31856,401.76992 c 0.20962,9.1748 -1.30772,18.39242 -1.30772,27.46219 0,0.87182 0.87181,2.61545 0,2.61545 -0.1069,0 0.58708,-1.82804 0.65386,-1.96159"
         style="fill:none;fill-opacity:1;fill-rule:evenodd;stroke:#ffff00;stroke-width:1.35354328;stroke-linecap:butt;stroke-linejoin:miter;stroke-miterlimit:4;stroke-dasharray:none;stroke-opacity:1" />
      <path
         inkscape:connector-curvature="0"
         id="path3456"
         d="m 464.24173,401.76992 c 1.79724,2.52123 2.31646,26.15447 1.96158,26.15447 -1.32576,0 0.23462,-2.66544 0.65386,-3.92317"
         style="fill:none;fill-opacity:1;fill-rule:evenodd;stroke:#ffff00;stroke-width:1.35354328;stroke-linecap:butt;stroke-linejoin:miter;stroke-miterlimit:4;stroke-dasharray:none;stroke-opacity:1" />
      <path
         inkscape:connector-curvature="0"
         id="path3458"
         d="m 470.12648,405.03923 c 1.96459,6.98621 -0.92376,16.4606 1.96159,22.2313"
         style="fill:none;fill-opacity:1;fill-rule:evenodd;stroke:#ffff00;stroke-width:1.35354328;stroke-linecap:butt;stroke-linejoin:miter;stroke-miterlimit:4;stroke-dasharray:none;stroke-opacity:1" />
      <path
         inkscape:connector-curvature="0"
         id="path3460"
         d="m 478.62668,401.11606 c -0.14441,8.41701 0.65386,21.09166 0.65386,27.46219"
         style="fill:none;fill-opacity:1;fill-rule:evenodd;stroke:#ffff00;stroke-width:1.35354328;stroke-linecap:butt;stroke-linejoin:miter;stroke-miterlimit:4;stroke-dasharray:none;stroke-opacity:1" />
      <path
         inkscape:connector-curvature="0"
         id="path3462"
         d="m 486.47302,398.50062 c 1.98365,5.68817 0.0718,36.75984 -2.61544,31.38535"
         style="fill:none;fill-opacity:1;fill-rule:evenodd;stroke:#ffff00;stroke-width:1.35354328;stroke-linecap:butt;stroke-linejoin:miter;stroke-miterlimit:4;stroke-dasharray:none;stroke-opacity:1" />
      <path
         inkscape:connector-curvature="0"
         id="path3464"
         d="m 488.43461,403.73151 c 4.37216,7.97923 1.30772,19.565 1.30772,28.11605"
         style="fill:none;fill-opacity:1;fill-rule:evenodd;stroke:#ffff00;stroke-width:1.35354328;stroke-linecap:butt;stroke-linejoin:miter;stroke-miterlimit:4;stroke-dasharray:none;stroke-opacity:1" />
      <path
         inkscape:connector-curvature="0"
         id="path3466"
         d="m 494.97322,401.76992 c -0.17487,6.41396 3.81498,12.20227 1.96159,19.61585 -0.26578,1.06311 -1.30773,2.85709 -1.30773,3.92317 0,0.11709 1.35631,3.26931 0,3.26931 -0.87181,0 0,-1.74363 0,-2.61545"
         style="fill:none;fill-opacity:1;fill-rule:evenodd;stroke:#ffff00;stroke-width:1.35354328;stroke-linecap:butt;stroke-linejoin:miter;stroke-miterlimit:4;stroke-dasharray:none;stroke-opacity:1" />
      <path
         inkscape:connector-curvature="0"
         id="path3468"
         d="m 506.08887,393.26972 c 1.78744,3.77365 -0.65386,5.58181 -0.65386,9.15407 0,4.5662 1.55708,11.67528 0,16.34654 -0.36717,1.1015 -1.30772,8.35098 -1.30772,4.57703"
         style="fill:none;fill-opacity:1;fill-rule:evenodd;stroke:#ffff00;stroke-width:1.35354328;stroke-linecap:butt;stroke-linejoin:miter;stroke-miterlimit:4;stroke-dasharray:none;stroke-opacity:1" />
      <path
         inkscape:connector-curvature="0"
         id="path3470"
         d="m 512.62749,399.15448 c 1.15016,9.9797 -3.92317,23.06114 -3.92317,30.07763 0,0.44018 0.65386,-1.3761 0.65386,-1.96158"
         style="fill:none;fill-opacity:1;fill-rule:evenodd;stroke:#ffff00;stroke-width:1.35354328;stroke-linecap:butt;stroke-linejoin:miter;stroke-miterlimit:4;stroke-dasharray:none;stroke-opacity:1" />
      <path
         inkscape:connector-curvature="0"
         id="path3472"
         d="m 516.55066,397.84675 c 0.26147,10.29537 -0.0134,23.56577 -3.26931,30.07764"
         style="fill:none;fill-opacity:1;fill-rule:evenodd;stroke:#ffff00;stroke-width:1.35354328;stroke-linecap:butt;stroke-linejoin:miter;stroke-miterlimit:4;stroke-dasharray:none;stroke-opacity:1" />
      <path
         inkscape:connector-curvature="0"
         id="path3474"
         d="m 525.70472,393.92358 c 1.87859,7.31367 0,29.95646 0,37.27012"
         style="fill:none;fill-opacity:1;fill-rule:evenodd;stroke:#ffff00;stroke-width:1.35354328;stroke-linecap:butt;stroke-linejoin:miter;stroke-miterlimit:4;stroke-dasharray:none;stroke-opacity:1" />
      <path
         inkscape:connector-curvature="0"
         id="path3476"
         d="m 532.89719,396.53903 c 5.30379,12.7115 -3.92316,25.21693 -3.92316,36.61625"
         style="fill:none;fill-opacity:1;fill-rule:evenodd;stroke:#ffff00;stroke-width:1.35354328;stroke-linecap:butt;stroke-linejoin:miter;stroke-miterlimit:4;stroke-dasharray:none;stroke-opacity:1" />
      <path
         inkscape:connector-curvature="0"
         id="path3478"
         d="m 538.78195,395.88517 c 1.51813,12.72593 -2.61545,24.13757 -2.61545,36.61625"
         style="fill:none;fill-opacity:1;fill-rule:evenodd;stroke:#ffff00;stroke-width:1.35354328;stroke-linecap:butt;stroke-linejoin:miter;stroke-miterlimit:4;stroke-dasharray:none;stroke-opacity:1" />
      <path
         inkscape:connector-curvature="0"
         id="path3480"
         d="m 547.28215,393.92358 c 3.79743,12.83261 0,25.18319 0,38.57784"
         style="fill:none;fill-opacity:1;fill-rule:evenodd;stroke:#ffff00;stroke-width:1.35354328;stroke-linecap:butt;stroke-linejoin:miter;stroke-miterlimit:4;stroke-dasharray:none;stroke-opacity:1" />
      <path
         inkscape:connector-curvature="0"
         id="path3482"
         d="m 557.74394,393.26972 c 1.93239,3.21232 1.65509,6.95747 0.65386,10.46179 -0.62837,2.19928 -3.68363,19.92014 -3.26931,21.57743 0.3905,1.56201 -0.84966,1.8951 -1.30772,3.26931 -0.46243,1.38727 0.65386,5.1102 0.65386,1.96158"
         style="fill:none;fill-opacity:1;fill-rule:evenodd;stroke:#ffff00;stroke-width:1.35354328;stroke-linecap:butt;stroke-linejoin:miter;stroke-miterlimit:4;stroke-dasharray:none;stroke-opacity:1" />
      <path
         inkscape:connector-curvature="0"
         id="path3484"
         d="m 567.55186,391.30814 c 0.94634,2.76365 0.65386,5.62555 0.65386,8.5002 0,8.06362 -1.74282,15.25273 -3.26931,22.88515 -0.20986,1.0493 -1.96158,9.12268 -1.96158,6.53862"
         style="fill:none;fill-opacity:1;fill-rule:evenodd;stroke:#ffff00;stroke-width:1.35354328;stroke-linecap:butt;stroke-linejoin:miter;stroke-miterlimit:4;stroke-dasharray:none;stroke-opacity:1" />
      <path
         inkscape:connector-curvature="0"
         id="path3486"
         d="m 579.97523,387.38497 c 1.65628,16.63992 -5.23089,32.63675 -5.23089,47.73189"
         style="fill:none;fill-opacity:1;fill-rule:evenodd;stroke:#ffff00;stroke-width:1.35354328;stroke-linecap:butt;stroke-linejoin:miter;stroke-miterlimit:4;stroke-dasharray:none;stroke-opacity:1" />
      <path
         inkscape:connector-curvature="0"
         id="path3488"
         d="m 416.50983,405.03923 c -0.99052,3.79881 0,2.61765 0,6.53862 0,1.40587 2.76069,24.19288 1.30773,24.19288 -0.68924,0 0.34562,-1.34512 0.65386,-1.96159"
         style="fill:none;fill-opacity:1;fill-rule:evenodd;stroke:#ffff00;stroke-width:1.35354328;stroke-linecap:butt;stroke-linejoin:miter;stroke-miterlimit:4;stroke-dasharray:none;stroke-opacity:1" />
      <path
         inkscape:connector-curvature="0"
         id="path3490"
         d="m 418.47142,399.80834 c 0.44603,8.89462 -0.65386,28.19073 -0.65386,36.61625"
         style="fill:none;fill-opacity:1;fill-rule:evenodd;stroke:#ffff00;stroke-width:1.35354328;stroke-linecap:butt;stroke-linejoin:miter;stroke-miterlimit:4;stroke-dasharray:none;stroke-opacity:1" />
      <path
         inkscape:connector-curvature="0"
         id="path3492"
         d="m 411.9328,399.15448 c 2.54878,6.85654 1.96159,15.47475 1.96159,22.23129 0,1.32985 -0.65387,2.91156 -0.65387,4.57703 0,0.65386 0.65387,1.96159 0,1.96159 -0.4359,0 0.91784,-0.19495 1.30773,0"
         style="fill:none;fill-opacity:1;fill-rule:evenodd;stroke:#ffff00;stroke-width:1.35354328;stroke-linecap:butt;stroke-linejoin:miter;stroke-miterlimit:4;stroke-dasharray:none;stroke-opacity:1" />
      <path
         inkscape:connector-curvature="0"
         id="path3494"
         d="m 409.97122,396.53903 c -1.19613,11.18265 0.93685,28.85779 -1.96159,34.65467"
         style="fill:none;fill-opacity:1;fill-rule:evenodd;stroke:#ffff00;stroke-width:1.35354328;stroke-linecap:butt;stroke-linejoin:miter;stroke-miterlimit:4;stroke-dasharray:none;stroke-opacity:1" />
      <path
         inkscape:connector-curvature="0"
         id="path3496"
         d="m 406.70191,402.42379 c 1.25471,10.32235 -5.64593,21.40121 -1.30772,30.07763"
         style="fill:none;fill-opacity:1;fill-rule:evenodd;stroke:#ffff00;stroke-width:1.35354328;stroke-linecap:butt;stroke-linejoin:miter;stroke-miterlimit:4;stroke-dasharray:none;stroke-opacity:1" />
      <path
         inkscape:connector-curvature="0"
         id="path3506"
         d="m 205.31254,443.61707 c -1.19731,8.70793 -0.65386,16.62934 -0.65386,38.57783 0,22.74947 0.65386,57.13042 0.65386,65.38616 0,4.14331 -1.30772,5.16885 -1.30772,9.80792 0,1.86232 0.86827,5.67034 0,6.53862 -0.30824,0.30823 -1.30773,0.43591 -1.30773,0 0,-2.79035 15.56334,1.30772 17.0004,1.30772 1.78407,0 8.03928,-0.55739 9.15407,0 0.0428,0.0214 0.70633,1.30772 1.30772,1.30772 0.78965,0 36.3583,-3.14033 36.61625,-3.2693 1.96031,-0.98016 10.62238,0.49326 11.11565,0 0.35723,-0.35724 11.59612,-2.61545 13.07723,-2.61545 1.22495,0 2.82513,1.23783 4.57703,0.65386 2.23351,-0.7445 4.60481,-0.65386 7.19248,-0.65386 3.39463,0 51.45239,-3.04371 56.23209,-0.65386 3.44313,1.72156 24.27051,2.03921 24.84674,2.61544 0.55568,0.55568 1.17574,1.30773 1.96159,1.30773 2.33991,0 13.67696,-2.66958 15.69268,-0.65386 0.0863,0.0863 7.66089,1.96158 8.5002,1.96158 5.85001,0 19.95189,-1.46663 22.88515,0"
         style="fill:none;fill-opacity:1;fill-rule:evenodd;stroke:#ffff00;stroke-width:1.35354328;stroke-linecap:butt;stroke-linejoin:miter;stroke-miterlimit:4;stroke-dasharray:none;stroke-opacity:1" />
      <path
         inkscape:connector-curvature="0"
         id="path3508"
         d="m 209.23571,445.57865 c 1.09096,7.16518 1.96158,9.3654 1.96158,15.03882 0,0.61646 1.30773,0.69125 1.30773,1.30772 0,12.75391 3.2693,23.50134 3.2693,36.61625 0,1.09461 1.96159,2.94159 1.96159,6.53861 0,0.48736 1.30772,0.16651 1.30772,0.65387 0,4.24637 1.30773,5.58712 1.30773,9.80792 0,0.78584 1.65916,1.2587 1.30772,1.96158 -1.02501,2.05003 2.77737,6.04668 3.26931,6.53862 0.21795,0.21795 0.65386,0.9621 0.65386,0.65386 0,-0.69753 -0.26543,3.65774 1.30772,5.2309 1.42369,1.42368 13.20855,7.84633 13.73109,7.84633 0.28885,0 3.11401,-0.3106 3.26931,0 0.19495,0.38989 -0.38989,1.11278 0,1.30773 0.61647,0.30823 1.34512,-0.9621 1.96159,-0.65386 1.30772,0.65386 5.38525,1.96158 3.92317,1.96158 -2.46525,0 5.30433,-1.88815 6.53861,-0.65386 0.91918,0.91917 14.92643,1.69085 18.30813,0 0.70288,-0.35144 1.17574,-1.30772 1.96158,-1.30772 3.92651,0 26.93688,-0.26266 27.46219,0 0.91374,0.45686 4.78114,1.30772 6.53861,1.30772 7.52444,0 16.21771,-0.65386 24.19288,-0.65386 0.4762,0 3.52728,0.39589 3.92317,0 0.82995,-0.82995 2.09559,-1.30773 3.26931,-1.30773 2.07199,0 19.96151,1.61593 20.92357,0.65387 0.55568,-0.55568 1.17574,-1.30773 1.96159,-1.30773 16.94462,0 32.30795,1.96159 48.38575,1.96159 5.6508,0 18.53892,-1.84619 20.92358,-0.65386"
         style="fill:none;fill-opacity:1;fill-rule:evenodd;stroke:#ffff00;stroke-width:1.35354328;stroke-linecap:butt;stroke-linejoin:miter;stroke-miterlimit:4;stroke-dasharray:none;stroke-opacity:1" />
      <path
         inkscape:connector-curvature="0"
         id="path3510"
         d="m 200.08165,565.23532 c -0.65387,0.87182 -1.19101,1.84486 -1.96159,2.61545 -2.73765,2.73764 -0.58953,10.39746 0,9.80792 0.69501,-0.69501 1.30772,2.77734 1.30772,0.65386 0,-1.05162 -0.22583,1.96159 0,1.96159 3.26904,0 7.07963,-4.46418 6.53862,-3.92317 -0.65233,0.65233 -0.81659,-4.57703 -0.65386,-4.57703 1.77599,0 -3.92317,-4.42503 -3.92317,-3.92317 0,0.1662 3.92821,-2.61545 -1.30772,-2.61545 -0.68923,0 1.30772,1.74363 0.65386,1.96159 -4.31338,1.43779 2.61001,-5.22547 -2.61545,0"
         style="fill:none;fill-opacity:1;fill-rule:evenodd;stroke:#ffff00;stroke-width:1.35354328;stroke-linecap:butt;stroke-linejoin:miter;stroke-miterlimit:4;stroke-dasharray:none;stroke-opacity:1" />
      <path
         inkscape:connector-curvature="0"
         id="path3512"
         d="m 426.31776,573.73552 c 0.21337,0.0724 3.46163,-7.19248 5.23089,-7.19248 0.68923,0 -0.65386,1.27236 -0.65386,1.96159 0,0.71354 0,2.77295 0,4.57703 0,4.06072 -1.30773,8.09065 -1.30773,13.73109 0,0.87182 0,-1.74363 0,-2.61544"
         style="fill:none;fill-opacity:1;fill-rule:evenodd;stroke:#ffff00;stroke-width:1.35354328;stroke-linecap:butt;stroke-linejoin:miter;stroke-miterlimit:4;stroke-dasharray:none;stroke-opacity:1" />
      <path
         inkscape:connector-curvature="0"
         id="path3514"
         d="m 404.74032,452.11727 c -0.87181,0 -1.76966,-0.21145 -2.61544,0 -0.12914,0.0323 -3.26931,4.96872 -3.26931,5.88475 0,1.92026 -0.21537,5.66938 0,5.88475 1.43725,1.43726 0.52433,1.1782 1.96158,2.61545 2.96639,2.96638 14.17192,-14.38495 0.65387,-14.38495"
         style="fill:none;fill-opacity:1;fill-rule:evenodd;stroke:#ffff00;stroke-width:1.35354328;stroke-linecap:butt;stroke-linejoin:miter;stroke-miterlimit:4;stroke-dasharray:none;stroke-opacity:1" />
      <path
         inkscape:connector-curvature="0"
         id="path3516"
         d="m 568.85958,457.34816 c -0.74285,-1.32874 7.84634,-7.76633 7.84634,-9.80793 0,-0.65386 0,1.30773 0,1.96159 0,0.01 -1.30772,1.47516 -1.30772,3.26931 0,1.53777 -0.18392,8.68412 -1.30772,9.80792 -1.32983,1.32983 -0.65387,0.38912 -0.65387,1.96159 0,0.68923 -1.34511,-0.9621 -1.96158,-0.65387 -0.99402,0.49702 -4.38066,0.65387 -3.26931,0.65387 2.85681,0 10.46179,-2.8535 10.46179,-1.30773 0,1.10872 -11.76951,-3.0449 -11.76951,0 0,0.68923 1.27235,-0.65386 1.96158,-0.65386 2.70064,0 6.13433,0.20214 7.84634,-0.65386"
         style="fill:none;fill-opacity:1;fill-rule:evenodd;stroke:#ffff00;stroke-width:1.35354328;stroke-linecap:butt;stroke-linejoin:miter;stroke-miterlimit:4;stroke-dasharray:none;stroke-opacity:1" />
      <path
         inkscape:connector-curvature="0"
         id="path3518"
         d="m 323.66149,457.34816 c -1.33665,12.77971 -0.65387,28.37271 -0.65387,41.19328 0,0.43591 -1.11277,-0.38989 -1.30772,0 -0.54514,1.09028 -1.00733,4.22356 -1.30772,3.92317 -0.30823,-0.30823 -1.30772,0.43591 -1.30772,0 0,-0.48736 0.1665,1.30772 0.65386,1.30772 1.10579,0 0.65386,4.08346 0.65386,5.88476 0,0.96476 5.55195,3.92317 13.07723,3.92317 8.08398,0 45.66155,-2.39792 46.42417,-3.92317 4.28806,-8.57611 -1.30772,-26.84478 -1.30772,-30.07764 0,-5.62021 0,-11.96306 0,-13.07723 0,-3.88364 -0.65386,-9.11272 -0.65386,-9.80792 0,-1.11135 1.76521,-3.26931 0.65386,-3.26931 -2.1355,0 -3.20896,-1.30772 -4.57703,-1.30772 -9.54927,0 -22.74018,0.65386 -30.7315,0.65386 -1.58672,0 -3.45504,2.42971 -4.57703,1.30772 -0.99583,-0.99584 -3.08001,0.0947 -4.57703,-0.65386 -0.43591,-0.21795 -0.1665,-1.30772 -0.65386,-1.30772 -2.13963,0 -4.18405,1.96158 -8.5002,1.96158"
         style="fill:none;fill-opacity:1;fill-rule:evenodd;stroke:#ffff00;stroke-width:1.35354328;stroke-linecap:butt;stroke-linejoin:miter;stroke-miterlimit:4;stroke-dasharray:none;stroke-opacity:1" />
      <path
         inkscape:connector-curvature="0"
         id="path3520"
         d="m 377.932,467.15608 c 1.51813,0.84317 14.91806,0.53311 15.69268,1.30773 1.31285,1.31285 3.21315,1.90543 4.57703,3.2693 1.949,1.94901 3.1871,14.46716 1.96158,15.69268 -0.27449,0.27449 -1.94386,1.30773 -1.96158,1.30773 -0.43591,0 0.43591,1.30772 0,1.30772 -0.50349,0 -2.49186,-0.24719 -2.61545,0 -1.33447,2.66895 -15.69268,5.82444 -15.69268,3.92317"
         style="fill:none;fill-opacity:1;fill-rule:evenodd;stroke:#ffff00;stroke-width:1.35354328;stroke-linecap:butt;stroke-linejoin:miter;stroke-miterlimit:4;stroke-dasharray:none;stroke-opacity:1" />
      <path
         inkscape:connector-curvature="0"
         id="path3522"
         d="m 324.96921,465.84836 c -0.43591,0.87181 -0.76705,1.80443 -1.30772,2.61545 -0.99696,1.49543 3.52583,-0.73937 5.23089,-1.30773 3.51116,-1.17039 2.51496,-1.96158 7.84634,-1.96158 0.65386,0 0.65386,1.96158 0,1.96158 -0.44065,0 1.03197,-0.10236 1.30772,-0.65386 0.268,-0.536 0.61971,-1.96158 1.30772,-1.96158 4.58523,0 1.44817,5.09044 8.50021,-1.96159 1.38275,-1.38275 3.2693,3.1804 3.2693,3.26931 0,1.09489 4.13668,-3.81642 6.53862,-2.61545 2.04089,1.02045 0.93604,3.26931 3.26931,3.26931 2.86523,0 5.0881,-3.26931 5.88475,-3.26931 2.06624,0 0.9422,2.24992 1.30772,2.61545 0.98305,0.98304 4.19288,-2.61545 4.57704,-2.61545 1.91792,0 2.79391,2.43698 3.2693,1.96159 1.72834,-1.72834 0.27819,-2.14942 -0.65386,-2.61545"
         style="fill:none;fill-opacity:1;fill-rule:evenodd;stroke:#ffff00;stroke-width:1.35354328;stroke-linecap:butt;stroke-linejoin:miter;stroke-miterlimit:4;stroke-dasharray:none;stroke-opacity:1" />
      <path
         inkscape:connector-curvature="0"
         id="path3524"
         d="m 341.31575,481.54104 c -0.43591,0.87181 -0.43591,3.05135 -1.30772,2.61544 -0.87182,-0.4359 0.34626,-2.4552 1.30772,-2.61544 1.35971,-0.22662 2.54471,1.30772 3.92317,1.30772 0.27848,0 -0.1771,-3.44641 -1.30772,-4.57703 -0.11486,-0.11486 -1.96159,-1.32363 -1.96159,-0.65386 0,0.78584 -1.61014,0.60484 -1.96158,1.30772 0.4359,0.87182 2.17953,2.17954 1.30772,2.61545 -0.87182,0.43591 -0.87182,-1.74363 -1.30772,-2.61545"
         style="fill:none;fill-opacity:1;fill-rule:evenodd;stroke:#ffff00;stroke-width:1.35354328;stroke-linecap:butt;stroke-linejoin:miter;stroke-miterlimit:4;stroke-dasharray:none;stroke-opacity:1" />
      <path
         inkscape:connector-curvature="0"
         id="path3526"
         d="m 367.47021,476.31014 c -10.20262,-7.40392 -3.73093,13.34662 1.30773,3.26931 0.069,-0.13804 -1.30773,-3.52115 -1.30773,-5.88475"
         style="fill:none;fill-opacity:1;fill-rule:evenodd;stroke:#ffff00;stroke-width:1.35354328;stroke-linecap:butt;stroke-linejoin:miter;stroke-miterlimit:4;stroke-dasharray:none;stroke-opacity:1" />
      <path
         inkscape:connector-curvature="0"
         id="path3528"
         d="m 347.2005,491.34896 c 0.65387,-0.87181 1.08977,-3.26931 1.96159,-2.61544 -3.10139,7.91634 -1.73062,-0.10573 -1.30772,0 1.90301,0.47575 -1.96159,5.88475 0,5.88475 10.1849,0 5.41514,-5.88475 2.61544,-5.88475 -1.39558,0 -2.15284,1.77809 -3.26931,2.61544 z"
         style="fill:none;fill-opacity:1;fill-rule:evenodd;stroke:#ffff00;stroke-width:1.35354328;stroke-linecap:butt;stroke-linejoin:miter;stroke-miterlimit:4;stroke-dasharray:none;stroke-opacity:1" />
      <path
         inkscape:connector-curvature="0"
         id="path3530"
         d="m 353.73912,475.00242 c -0.48158,-8.1808 -7.65232,3.26931 -2.61545,3.26931 0.48736,0 0.16651,1.30772 0.65386,1.30772 6.47385,0 4.57704,-3.72506 4.57704,-6.53861 0,-0.50116 -1.03378,3.54326 -2.61545,1.96158 -0.77058,-0.77058 1.08977,-3.26931 1.96158,-2.61544 0.87182,0.65386 -0.87181,2.61544 -1.96158,2.61544 -1.11135,0 1.76521,-3.26931 0.65386,-3.26931 -1.56174,0 -2.091,0.39503 -0.65386,3.26931 z"
         style="fill:none;fill-opacity:1;fill-rule:evenodd;stroke:#ffff00;stroke-width:1.35354328;stroke-linecap:butt;stroke-linejoin:miter;stroke-miterlimit:4;stroke-dasharray:none;stroke-opacity:1" />
      <path
         inkscape:connector-curvature="0"
         id="path3532"
         d="m 332.81555,471.73311 c -6.94245,-2.74644 -6.80125,3.66054 -4.57703,5.88476 0.3337,0.3337 8.90527,-3.72063 1.96158,-7.19248"
         style="fill:none;fill-opacity:1;fill-rule:evenodd;stroke:#ffff00;stroke-width:1.35354328;stroke-linecap:butt;stroke-linejoin:miter;stroke-miterlimit:4;stroke-dasharray:none;stroke-opacity:1" />
      <path
         inkscape:connector-curvature="0"
         id="path3534"
         d="m 323.00762,465.1945 c -3.43292,-3.20371 7.19248,-20.25695 7.19248,-10.46179 0,0.65386 -0.65386,-1.96158 0,-1.96158 0.83572,0 -1.11213,-0.39118 0,-2.61545 1.60626,-3.2125 2.38118,-5.11376 5.2309,-6.53861 2.81706,-1.40854 3.14936,4.57703 4.57703,4.57703 1.3731,0 0.85816,-4.67919 1.96158,-5.2309 0.43591,-0.21795 0.87182,0.87182 1.30772,0.65387 0.43591,-0.21796 -0.21795,-1.52568 0,-1.96159 1.22858,-2.45714 2.4281,-2.42809 3.92317,-3.92317 4.0089,-4.00889 2.87319,7.98472 5.88476,1.96159 0.32333,-0.64666 7.05065,-6.02658 7.84634,-5.2309 1.33778,1.33778 -0.72849,5.81013 0,6.53862 0.93009,0.93009 4.32538,-5.88476 5.23089,-5.88476 2.17752,0 0.84124,4.11055 1.96158,5.2309 1.69001,1.69 6.70551,-2.28167 7.19248,-1.30773 1.04562,2.09123 -0.39627,3.15039 -0.65386,3.92317 -0.43591,1.30773 0.333,2.94845 1.30772,3.92317 0.77496,0.77496 -0.62256,3.92317 0,3.92317 0.48736,0 -0.30924,0.96311 -0.65386,1.30773 -0.76284,0.76283 0.76284,3.81419 0,4.57703 -0.48736,0.48736 -1.34309,1.96158 -0.65386,1.96158 0.89865,0 1.05575,-1.81167 0.65386,-2.61544"
         style="fill:none;fill-opacity:1;fill-rule:evenodd;stroke:#ffff00;stroke-width:1.35354328;stroke-linecap:butt;stroke-linejoin:miter;stroke-miterlimit:4;stroke-dasharray:none;stroke-opacity:1" />
      <path
         inkscape:connector-curvature="0"
         id="path3536"
         d="m 364.85477,491.34896 c -0.87182,-0.21795 -1.74363,-0.87181 -2.61545,-0.65386 -0.45713,0.11428 -0.6507,5.88792 0,6.53862 0.47936,0.47935 13.61235,-3.13553 2.61545,-5.88476 z"
         style="fill:none;fill-opacity:1;fill-rule:evenodd;stroke:#ffff00;stroke-width:1.35354328;stroke-linecap:butt;stroke-linejoin:miter;stroke-miterlimit:4;stroke-dasharray:none;stroke-opacity:1" />
      <path
         inkscape:connector-curvature="0"
         id="path3538"
         d="m 333.46941,498.54144 c -6.91221,7.98311 6.30209,6.71943 3.92317,1.96158 -0.65386,-1.30772 -3.92317,-0.4995 -3.92317,-1.96158 0,-0.9173 7.09503,1.77376 0,0 z"
         style="fill:none;fill-opacity:1;fill-rule:evenodd;stroke:#ffff00;stroke-width:1.35354328;stroke-linecap:butt;stroke-linejoin:miter;stroke-miterlimit:4;stroke-dasharray:none;stroke-opacity:1" />
      <path
         inkscape:connector-curvature="0"
         id="path3540"
         d="m 336.08486,489.38738 c -5.9155,-2.56739 -3.35035,5.59834 1.30772,3.2693 3.46421,-1.7321 -3.96603,-0.611 -1.30772,-3.2693 0.77058,-0.77059 1.64072,1.47422 2.61544,1.96158 0.77978,0.38989 0.87182,-2.61544 0,-2.61544 -5.34159,0 0.11959,2.02137 -5.23089,-0.65387"
         style="fill:none;fill-opacity:1;fill-rule:evenodd;stroke:#ffff00;stroke-width:1.35354328;stroke-linecap:butt;stroke-linejoin:miter;stroke-miterlimit:4;stroke-dasharray:none;stroke-opacity:1" />
      <path
         inkscape:connector-curvature="0"
         id="path3542"
         d="m 352.4314,497.88758 c -3.58636,-0.30701 -4.57703,1.85356 -4.57703,1.96158 0,0.78899 -0.15749,6.53862 1.96158,6.53862 1.65989,0 6.23692,-1.96159 4.57703,-1.96159 -1.08977,0 0,-2.17954 0,-3.2693 0,-0.97472 -2.61545,-0.33301 -2.61545,-1.30773 0,-0.074 2.44372,-2.67752 -2.61544,-0.65386"
         style="fill:none;fill-opacity:1;fill-rule:evenodd;stroke:#ffff00;stroke-width:1.35354328;stroke-linecap:butt;stroke-linejoin:miter;stroke-miterlimit:4;stroke-dasharray:none;stroke-opacity:1" />
      <path
         inkscape:connector-curvature="0"
         id="path3544"
         d="m 367.47021,501.15689 c -6.23033,9.11369 17.38807,-2.61545 -1.30772,-2.61545"
         style="fill:none;fill-opacity:1;fill-rule:evenodd;stroke:#ffff00;stroke-width:1.35354328;stroke-linecap:butt;stroke-linejoin:miter;stroke-miterlimit:4;stroke-dasharray:none;stroke-opacity:1" />
      <path
         inkscape:connector-curvature="0"
         id="path3546"
         d="m 368.77794,477.61787 c -6.32161,6.19918 5.23089,5.68009 5.23089,3.92317 0,-0.43586 -1.35655,-4.89176 -5.23089,-3.92317 -0.63434,0.15858 0.65386,1.96158 0,1.96158 -0.65387,0 0.58483,-2.254 0,-1.96158 -0.87182,0.43591 -0.76705,1.80443 -1.30773,2.61544 -0.54067,0.81102 0.76705,-1.80443 1.30773,-2.61544 z"
         style="fill:none;fill-opacity:1;fill-rule:evenodd;stroke:#ffff00;stroke-width:1.35354328;stroke-linecap:butt;stroke-linejoin:miter;stroke-miterlimit:4;stroke-dasharray:none;stroke-opacity:1" />
      <path
         inkscape:connector-curvature="0"
         id="path3548"
         d="m 369.4318,467.80994 c -0.87182,0.21796 -1.74363,0.43591 -2.61545,0.65387 0,-0.21796 0,-0.87182 0,-0.65387 0,2.3932 -0.62464,1.99081 1.96159,4.57704 0.89864,0.89864 4.54018,-1.96159 3.2693,-1.96159 -1.08977,0 -1.08977,-3.26931 0,-3.26931 0.88381,0 -2.14217,0.55921 -5.88475,1.30773"
         style="fill:none;fill-opacity:1;fill-rule:evenodd;stroke:#ffff00;stroke-width:1.35354328;stroke-linecap:butt;stroke-linejoin:miter;stroke-miterlimit:4;stroke-dasharray:none;stroke-opacity:1" />
      <path
         inkscape:connector-curvature="0"
         id="path3550"
         d="m 336.08486,467.80994 c 0.21795,-0.87181 -0.21796,-2.8334 0.65386,-2.61544 0.87181,0.21795 0.24478,2.61544 -0.65386,2.61544 -1.08977,0 -1.08977,-3.2693 0,-3.2693 0.48736,0 -1.30773,0.1665 -1.30773,0.65386 0,0.97472 0.82413,1.76915 1.30773,2.61544 0.38988,0.68231 1.96158,1.52568 1.30772,1.96159 -0.65386,0.43591 -2.0106,-1.61015 -1.30772,-1.96159 1.0498,-0.5249 2.09559,1.30773 3.2693,1.30773 2.63198,0 6.40817,-8.02081 -1.96158,-5.2309"
         style="fill:none;fill-opacity:1;fill-rule:evenodd;stroke:#ffff00;stroke-width:1.35354328;stroke-linecap:butt;stroke-linejoin:miter;stroke-miterlimit:4;stroke-dasharray:none;stroke-opacity:1" />
      <path
         inkscape:connector-curvature="0"
         id="path3552"
         d="m 326.93079,480.88718 c -6.11162,7.56639 4.57704,6.3388 4.57704,1.30772 0,-1.58673 -3.15782,-0.59812 -4.57704,-1.30772 z"
         style="fill:none;fill-opacity:1;fill-rule:evenodd;stroke:#ffff00;stroke-width:1.35354328;stroke-linecap:butt;stroke-linejoin:miter;stroke-miterlimit:4;stroke-dasharray:none;stroke-opacity:1" />
      <path
         inkscape:connector-curvature="0"
         id="path3554"
         d="m 98.956301,262.6148 c 11.348139,-0.0991 -1.521116,25.12096 3.806009,30.44809 11.69491,11.69491 -1.903,86.39025 -1.903,104.66532 0,7.37416 3.59872,28.54509 -1.903009,28.54509 -5.230862,0 9.993189,-3.80601 15.224049,-3.80601 4.40502,0 9.84328,-1.90301 22.83607,-1.90301 27.07295,0 54.3636,-1.90301 85.63526,-1.90301 25.79876,0 53.70955,-9.51502 85.63526,-9.51502 2.6265,0 21.70703,-7.61203 26.64208,-7.61203 7.42956,0 12.07987,2.52359 17.12705,0 10.56459,-5.28229 25.25336,-8.30638 26.64208,-7.61202"
         style="fill:none;fill-opacity:1;fill-rule:evenodd;stroke:#ffff00;stroke-width:1.35354328;stroke-linecap:butt;stroke-linejoin:miter;stroke-miterlimit:4;stroke-dasharray:none;stroke-opacity:1" />
      <path
         inkscape:connector-curvature="0"
         id="path3556"
         d="m 213.13665,384.40717 c 6.80276,9.43209 5.70902,17.81636 5.70902,28.54509"
         style="fill:none;fill-opacity:1;fill-rule:evenodd;stroke:#ffff00;stroke-width:1.35354328;stroke-linecap:butt;stroke-linejoin:miter;stroke-miterlimit:4;stroke-dasharray:none;stroke-opacity:1" />
      <path
         inkscape:connector-curvature="0"
         id="path3558"
         d="m 213.13665,399.63122 c 13.51814,-3.38989 15.95866,3.37223 13.32104,-1.90301"
         style="fill:none;fill-opacity:1;fill-rule:evenodd;stroke:#ffff00;stroke-width:1.35354328;stroke-linecap:butt;stroke-linejoin:miter;stroke-miterlimit:4;stroke-dasharray:none;stroke-opacity:1" />
      <path
         inkscape:connector-curvature="0"
         id="path3560"
         d="m 226.45769,380.60116 c 5.72829,9.70182 3.80601,23.27274 3.80601,34.2541"
         style="fill:none;fill-opacity:1;fill-rule:evenodd;stroke:#ffff00;stroke-width:1.35354328;stroke-linecap:butt;stroke-linejoin:miter;stroke-miterlimit:4;stroke-dasharray:none;stroke-opacity:1" />
      <path
         inkscape:connector-curvature="0"
         id="path3562"
         d="m 239.77873,382.50416 c 0.34999,9.31734 0.35052,25.94104 -1.90301,30.4481 2.61543,0 10.22746,1.903 7.61203,1.903 -2.28713,0 2.78317,-3.66334 3.80601,-5.70901 0.46184,-0.92368 -1.30344,-3.80602 1.903,-3.80602 1.90301,0 1.90301,-5.70901 0,-5.70901 -2.1688,0 1.90301,-2.33137 1.90301,-3.80601 0,-1.41842 -3.80601,-0.48459 -3.80601,-1.90301 0,-1.48012 1.903,-5.28613 1.903,-3.80601 0,2.64711 -12.50628,-4.00718 -11.41803,-7.61203 z"
         style="fill:none;fill-opacity:1;fill-rule:evenodd;stroke:#ffff00;stroke-width:1.35354328;stroke-linecap:butt;stroke-linejoin:miter;stroke-miterlimit:4;stroke-dasharray:none;stroke-opacity:1" />
      <path
         inkscape:connector-curvature="0"
         id="path3564"
         d="m 260.71179,378.69815 c 3.15085,1.34754 1.90301,37.85533 1.90301,28.54509"
         style="fill:none;fill-opacity:1;fill-rule:evenodd;stroke:#ffff00;stroke-width:1.35354328;stroke-linecap:butt;stroke-linejoin:miter;stroke-miterlimit:4;stroke-dasharray:none;stroke-opacity:1" />
    </g>
    <text
       xml:space="preserve"
       style="font-style:normal;font-variant:normal;font-weight:normal;font-stretch:normal;font-size:67.5px;line-height:111.00000143%;font-family:Aino;-inkscape-font-specification:'Aino, Normal';text-align:start;letter-spacing:-1.38px;word-spacing:2.05999994px;writing-mode:lr-tb;text-anchor:start;fill:#ffff00;fill-opacity:1;stroke:none;stroke-width:2.12598419;stroke-linecap:round;stroke-linejoin:round;stroke-miterlimit:4;stroke-dasharray:none;stroke-opacity:1"
       x="89.366211"
       y="125.5984"
       id="text3630"
       sodipodi:linespacing="111%"><tspan
         sodipodi:role="line"
         id="tspan3632"
         x="89.366211"
         y="125.5984"
         style="font-style:normal;font-variant:normal;font-weight:normal;font-stretch:normal;font-size:67.5px;line-height:111.00000143%;font-family:Aino;-inkscape-font-specification:'Aino, Normal';text-align:start;letter-spacing:0px;word-spacing:2.05999994px;writing-mode:lr-tb;text-anchor:start;fill:#ffff00;stroke:none;stroke-width:2.12598419;stroke-linecap:round;stroke-linejoin:round;stroke-miterlimit:4;stroke-dasharray:none;stroke-opacity:1">Reprodutseeritav </tspan><tspan
         sodipodi:role="line"
         x="89.366211"
         y="200.52339"
         id="tspan3636"
         style="font-style:normal;font-variant:normal;font-weight:normal;font-stretch:normal;font-size:67.5px;line-height:111.00000143%;font-family:Aino;-inkscape-font-specification:'Aino, Normal';text-align:start;letter-spacing:0px;word-spacing:2.05999994px;writing-mode:lr-tb;text-anchor:start;fill:#ffff00;stroke:none;stroke-width:2.12598419;stroke-linecap:round;stroke-linejoin:round;stroke-miterlimit:4;stroke-dasharray:none;stroke-opacity:1">andmeanalüüs </tspan><tspan
         sodipodi:role="line"
         x="89.366211"
         y="275.44839"
         id="tspan3634"
         style="font-style:normal;font-variant:normal;font-weight:normal;font-stretch:normal;font-size:67.5px;line-height:111.00000143%;font-family:Aino;-inkscape-font-specification:'Aino, Normal';text-align:start;letter-spacing:0px;word-spacing:2.05999994px;writing-mode:lr-tb;text-anchor:start;fill:#ffff00;stroke:none;stroke-width:2.12598419;stroke-linecap:round;stroke-linejoin:round;stroke-miterlimit:4;stroke-dasharray:none;stroke-opacity:1">kasutades </tspan><tspan
         sodipodi:role="line"
         x="89.366211"
         y="350.37341"
         id="tspan3638"
         style="font-style:normal;font-variant:normal;font-weight:normal;font-stretch:normal;font-size:67.5px;line-height:111.00000143%;font-family:Aino;-inkscape-font-specification:'Aino, Normal';text-align:start;letter-spacing:0px;word-spacing:2.05999994px;writing-mode:lr-tb;text-anchor:start;fill:#ffff00;stroke:none;stroke-width:2.12598419;stroke-linecap:round;stroke-linejoin:round;stroke-miterlimit:4;stroke-dasharray:none;stroke-opacity:1">R </tspan><tspan
         sodipodi:role="line"
         x="89.366211"
         y="425.2984"
         id="tspan3640"
         style="font-style:normal;font-variant:normal;font-weight:normal;font-stretch:normal;font-size:67.5px;line-height:111.00000143%;font-family:Aino;-inkscape-font-specification:'Aino, Normal';text-align:start;letter-spacing:0px;word-spacing:2.05999994px;writing-mode:lr-tb;text-anchor:start;fill:#ffff00;stroke:none;stroke-width:2.12598419;stroke-linecap:round;stroke-linejoin:round;stroke-miterlimit:4;stroke-dasharray:none;stroke-opacity:1">keelt</tspan></text>
    <text
       xml:space="preserve"
       style="font-style:normal;font-variant:normal;font-weight:normal;font-stretch:normal;font-size:40px;line-height:125%;font-family:Aino;-inkscape-font-specification:'Aino, Normal';text-align:start;letter-spacing:0px;word-spacing:0px;writing-mode:lr-tb;text-anchor:start;fill:#000000;fill-opacity:1;stroke:none;stroke-width:1px;stroke-linecap:butt;stroke-linejoin:miter;stroke-opacity:1"
       x="323.43506"
       y="924.86084"
       id="text4444"
       sodipodi:linespacing="125%"><tspan
         sodipodi:role="line"
         id="tspan4446"
         x="323.43506"
         y="924.86084"
         style="font-style:normal;font-variant:normal;font-weight:normal;font-stretch:normal;font-size:40px;line-height:125%;font-family:Aino;-inkscape-font-specification:'Aino, Normal';text-align:start;writing-mode:lr-tb;text-anchor:start;fill:#ffff00">%&gt;%</tspan></text>
    <text
       xml:space="preserve"
       style="font-style:normal;font-variant:normal;font-weight:normal;font-stretch:normal;font-size:40px;line-height:125%;font-family:Aino;-inkscape-font-specification:'Aino, Normal';text-align:start;letter-spacing:0px;word-spacing:0px;writing-mode:lr-tb;text-anchor:start;fill:#ffff00;fill-opacity:1;stroke:none;stroke-width:1px;stroke-linecap:butt;stroke-linejoin:miter;stroke-opacity:1"
       x="90.493713"
       y="485.26648"
       id="text4467"
       sodipodi:linespacing="125%"><tspan
         sodipodi:role="line"
         id="tspan4469"
         x="90.493713"
         y="485.26648">Ülo Maiväli, Taavi Päll</tspan></text>
    <text
       xml:space="preserve"
       style="font-style:normal;font-variant:normal;font-weight:normal;font-stretch:normal;font-size:20px;line-height:125%;font-family:Aino;-inkscape-font-specification:'Aino, Normal';text-align:start;letter-spacing:0px;word-spacing:0px;writing-mode:lr-tb;text-anchor:start;fill:#ffff00;fill-opacity:1;stroke:none;stroke-width:1px;stroke-linecap:butt;stroke-linejoin:miter;stroke-opacity:1;"
       x="92.026566"
       y="981.95099"
       id="text4471"
       sodipodi:linespacing="125%"><tspan
         sodipodi:role="line"
         id="tspan4473"
         x="92.026566"
         y="981.95099">Samizdat 2017</tspan></text>
  </g>
</svg>
